<?xml version="1.0" standalone="no"?>
<!DOCTYPE svg PUBLIC "-//W3C//DTD SVG 20010904//EN"
 "http://www.w3.org/TR/2001/REC-SVG-20010904/DTD/svg10.dtd">
<svg version="1.0" xmlns="http://www.w3.org/2000/svg"
 width="700.000000pt" height="700.000000pt" viewBox="0 0 700.000000 700.000000"
 preserveAspectRatio="xMidYMid meet">
<metadata>
Created by potrace 1.14, written by Peter Selinger 2001-2017
</metadata>
<g transform="translate(0.000000,700.000000) scale(0.100000,-0.100000)"
fill="#000000" stroke="none">
<path d="M4657 6464 c-1 -1 -58 -5 -127 -8 -69 -4 -141 -9 -160 -11 -19 -2
-66 -6 -105 -10 -38 -3 -81 -7 -95 -9 -88 -11 -131 -16 -180 -22 -30 -3 -95
-12 -144 -19 l-88 -13 -94 -93 c-105 -104 -103 -91 -14 -125 412 -156 727
-302 929 -431 126 -80 292 -229 306 -275 4 -10 10 -18 14 -18 7 0 32 -52 61
-128 13 -34 18 -136 8 -187 -8 -42 -74 -152 -213 -350 -109 -155 -244 -319
-386 -466 l-46 -48 53 -36 c30 -19 55 -35 57 -35 2 0 35 -20 73 -46 43 -28 77
-43 89 -41 11 3 72 24 135 47 137 50 296 96 365 105 28 4 79 22 115 40 174 88
425 140 734 151 117 4 138 2 219 -21 106 -31 192 -69 298 -130 87 -51 146 -64
213 -45 37 10 60 29 133 109 108 117 132 150 164 221 22 51 24 69 26 226 2
169 1 174 -31 277 -44 139 -80 209 -210 407 -167 253 -252 363 -386 501 -130
133 -220 202 -354 273 -52 27 -164 74 -216 91 -122 38 -269 71 -410 90 -25 3
-56 8 -70 10 -89 13 -651 30 -663 19z"/>
<path d="M1209 5825 c-2 -2 -65 -6 -139 -10 -74 -4 -142 -8 -151 -10 -9 -2
-57 -6 -105 -9 -49 -4 -105 -8 -124 -11 -19 -2 -69 -7 -110 -10 -108 -9 -181
-16 -210 -20 -14 -2 -63 -6 -110 -10 -71 -5 -99 -13 -172 -48 -71 -34 -88 -46
-88 -64 0 -54 381 -476 580 -643 36 -30 67 -57 70 -60 3 -3 41 -32 85 -65 44
-33 82 -62 85 -65 28 -28 268 -174 375 -227 39 -20 72 -37 74 -39 3 -3 -169
-340 -221 -430 -12 -23 -44 -80 -70 -127 -130 -235 -305 -511 -511 -809 -146
-211 -199 -390 -191 -653 5 -203 34 -349 116 -585 51 -148 57 -161 131 -310
232 -466 593 -784 1097 -965 160 -57 454 -122 640 -140 89 -9 243 -10 312 -1
298 36 453 195 462 471 3 93 0 132 -29 320 -9 61 -19 124 -21 140 -2 17 -6 46
-9 65 -3 19 -8 53 -10 75 -3 22 -8 51 -10 65 -2 14 -7 45 -10 70 -3 25 -12 83
-20 130 -7 47 -16 108 -20 135 -3 28 -8 62 -10 76 -3 14 -7 41 -9 60 -9 64
-46 314 -52 351 -6 35 -31 68 -135 182 l-36 39 -32 -54 c-17 -30 -36 -61 -41
-69 -5 -8 -54 -89 -109 -180 -96 -161 -100 -165 -137 -172 -96 -16 -260 -23
-519 -23 -365 0 -520 14 -640 55 -240 82 -367 217 -379 403 -5 71 8 115 52
184 73 112 189 226 467 461 66 56 167 143 225 193 184 160 429 343 527 393 18
9 97 37 175 62 138 45 259 89 325 119 17 8 34 15 37 15 8 0 110 62 116 71 3 3
24 16 46 27 58 29 117 101 144 172 24 65 34 205 19 284 -4 22 -10 59 -13 81
-44 280 -195 597 -366 766 -137 135 -313 230 -529 284 -95 24 -114 28 -201 40
-25 4 -56 9 -70 12 -29 5 -546 13 -551 8z"/>
<path d="M3467 3139 c-12 -4 -53 -21 -90 -38 l-68 -31 85 -65 c47 -35 93 -71
103 -80 10 -8 56 -45 103 -82 47 -38 94 -75 105 -85 222 -183 402 -337 544
-467 46 -42 87 -78 92 -81 42 -27 583 -563 746 -740 108 -117 192 -200 204
-200 5 0 31 -15 57 -33 153 -106 437 -283 558 -347 135 -71 416 -116 559 -89
89 17 169 63 230 135 115 136 148 224 148 395 0 122 -49 332 -107 464 -8 17
-26 59 -42 95 -129 299 -315 588 -497 775 -112 117 -115 119 -317 209 -32 14
-252 95 -275 100 -5 2 -17 6 -25 9 -72 29 -401 109 -505 122 -16 2 -50 7 -75
11 -74 12 -81 12 -172 19 -111 9 -1331 12 -1361 4z"/>
</g>
</svg>
